<?xml version="1.0" standalone="no"?>
<svg xmlns:xlink="http://www.w3.org/1999/xlink" id="wave" style="transform:rotate(180deg); transition: 0.3s" viewBox="0 0 1440 170" version="1.1" xmlns="http://www.w3.org/2000/svg"><defs><linearGradient id="sw-gradient-0" x1="0" x2="0" y1="1" y2="0"><stop stop-color="rgba(62, 114.243, 243, 1)" offset="0%"/><stop stop-color="rgba(196.798, 11, 255, 1)" offset="100%"/></linearGradient></defs><path style="transform:translate(0, 0px); opacity:1" fill="url(#sw-gradient-0)" d="M0,102L21.8,110.5C43.6,119,87,136,131,130.3C174.5,125,218,96,262,85C305.5,74,349,79,393,90.7C436.4,102,480,119,524,121.8C567.3,125,611,113,655,107.7C698.2,102,742,102,785,99.2C829.1,96,873,91,916,85C960,79,1004,74,1047,62.3C1090.9,51,1135,34,1178,28.3C1221.8,23,1265,28,1309,39.7C1352.7,51,1396,68,1440,65.2C1483.6,62,1527,40,1571,42.5C1614.5,45,1658,74,1702,82.2C1745.5,91,1789,79,1833,73.7C1876.4,68,1920,68,1964,70.8C2007.3,74,2051,79,2095,87.8C2138.2,96,2182,108,2225,99.2C2269.1,91,2313,62,2356,62.3C2400,62,2444,91,2487,93.5C2530.9,96,2575,74,2618,53.8C2661.8,34,2705,17,2749,22.7C2792.7,28,2836,57,2880,76.5C2923.6,96,2967,108,3011,93.5C3054.5,79,3098,40,3120,19.8L3141.8,0L3141.8,170L3120,170C3098.2,170,3055,170,3011,170C2967.3,170,2924,170,2880,170C2836.4,170,2793,170,2749,170C2705.5,170,2662,170,2618,170C2574.5,170,2531,170,2487,170C2443.6,170,2400,170,2356,170C2312.7,170,2269,170,2225,170C2181.8,170,2138,170,2095,170C2050.9,170,2007,170,1964,170C1920,170,1876,170,1833,170C1789.1,170,1745,170,1702,170C1658.2,170,1615,170,1571,170C1527.3,170,1484,170,1440,170C1396.4,170,1353,170,1309,170C1265.5,170,1222,170,1178,170C1134.5,170,1091,170,1047,170C1003.6,170,960,170,916,170C872.7,170,829,170,785,170C741.8,170,698,170,655,170C610.9,170,567,170,524,170C480,170,436,170,393,170C349.1,170,305,170,262,170C218.2,170,175,170,131,170C87.3,170,44,170,22,170L0,170Z"/><defs><linearGradient id="sw-gradient-1" x1="0" x2="0" y1="1" y2="0"><stop stop-color="rgba(243, 62, 181.943, 1)" offset="0%"/><stop stop-color="rgba(72.235, 160.68, 230.276, 1)" offset="100%"/></linearGradient></defs><path style="transform:translate(0, 50px); opacity:0.9" fill="url(#sw-gradient-1)" d="M0,102L21.8,90.7C43.6,79,87,57,131,42.5C174.5,28,218,23,262,36.8C305.5,51,349,85,393,99.2C436.4,113,480,108,524,102C567.3,96,611,91,655,85C698.2,79,742,74,785,59.5C829.1,45,873,23,916,11.3C960,0,1004,0,1047,5.7C1090.9,11,1135,23,1178,42.5C1221.8,62,1265,91,1309,107.7C1352.7,125,1396,130,1440,110.5C1483.6,91,1527,45,1571,36.8C1614.5,28,1658,57,1702,68C1745.5,79,1789,74,1833,85C1876.4,96,1920,125,1964,124.7C2007.3,125,2051,96,2095,70.8C2138.2,45,2182,23,2225,19.8C2269.1,17,2313,34,2356,34C2400,34,2444,17,2487,22.7C2530.9,28,2575,57,2618,56.7C2661.8,57,2705,28,2749,19.8C2792.7,11,2836,23,2880,48.2C2923.6,74,2967,113,3011,121.8C3054.5,130,3098,108,3120,96.3L3141.8,85L3141.8,170L3120,170C3098.2,170,3055,170,3011,170C2967.3,170,2924,170,2880,170C2836.4,170,2793,170,2749,170C2705.5,170,2662,170,2618,170C2574.5,170,2531,170,2487,170C2443.6,170,2400,170,2356,170C2312.7,170,2269,170,2225,170C2181.8,170,2138,170,2095,170C2050.9,170,2007,170,1964,170C1920,170,1876,170,1833,170C1789.1,170,1745,170,1702,170C1658.2,170,1615,170,1571,170C1527.3,170,1484,170,1440,170C1396.4,170,1353,170,1309,170C1265.5,170,1222,170,1178,170C1134.5,170,1091,170,1047,170C1003.6,170,960,170,916,170C872.7,170,829,170,785,170C741.8,170,698,170,655,170C610.9,170,567,170,524,170C480,170,436,170,393,170C349.1,170,305,170,262,170C218.2,170,175,170,131,170C87.3,170,44,170,22,170L0,170Z"/><defs><linearGradient id="sw-gradient-2" x1="0" x2="0" y1="1" y2="0"><stop stop-color="rgba(148.316, 60.685, 200.677, 1)" offset="0%"/><stop stop-color="rgba(125.027, 204.042, 209.784, 1)" offset="100%"/></linearGradient></defs><path style="transform:translate(0, 100px); opacity:0.8" fill="url(#sw-gradient-2)" d="M0,153L21.8,141.7C43.6,130,87,108,131,90.7C174.5,74,218,62,262,53.8C305.5,45,349,40,393,36.8C436.4,34,480,34,524,39.7C567.3,45,611,57,655,68C698.2,79,742,91,785,79.3C829.1,68,873,34,916,36.8C960,40,1004,79,1047,102C1090.9,125,1135,130,1178,113.3C1221.8,96,1265,57,1309,34C1352.7,11,1396,6,1440,5.7C1483.6,6,1527,11,1571,34C1614.5,57,1658,96,1702,110.5C1745.5,125,1789,113,1833,102C1876.4,91,1920,79,1964,87.8C2007.3,96,2051,125,2095,130.3C2138.2,136,2182,119,2225,119C2269.1,119,2313,136,2356,119C2400,102,2444,51,2487,51C2530.9,51,2575,102,2618,124.7C2661.8,147,2705,142,2749,116.2C2792.7,91,2836,45,2880,36.8C2923.6,28,2967,57,3011,73.7C3054.5,91,3098,96,3120,99.2L3141.8,102L3141.8,170L3120,170C3098.2,170,3055,170,3011,170C2967.3,170,2924,170,2880,170C2836.4,170,2793,170,2749,170C2705.5,170,2662,170,2618,170C2574.5,170,2531,170,2487,170C2443.6,170,2400,170,2356,170C2312.7,170,2269,170,2225,170C2181.8,170,2138,170,2095,170C2050.9,170,2007,170,1964,170C1920,170,1876,170,1833,170C1789.1,170,1745,170,1702,170C1658.2,170,1615,170,1571,170C1527.3,170,1484,170,1440,170C1396.4,170,1353,170,1309,170C1265.5,170,1222,170,1178,170C1134.5,170,1091,170,1047,170C1003.6,170,960,170,916,170C872.7,170,829,170,785,170C741.8,170,698,170,655,170C610.9,170,567,170,524,170C480,170,436,170,393,170C349.1,170,305,170,262,170C218.2,170,175,170,131,170C87.3,170,44,170,22,170L0,170Z"/></svg>