<?xml version="1.0" standalone="no"?>
<svg xmlns:xlink="http://www.w3.org/1999/xlink" id="wave" style="transform:rotate(0deg); transition: 0.3s" viewBox="0 0 1440 140" version="1.1" xmlns="http://www.w3.org/2000/svg">
  <defs>
    <linearGradient id="sw-gradient-0" x1="0" x2="0" y1="1" y2="0">
      <stop stop-color="rgba(190, 144, 255, 1)" offset="0%" />
      <stop stop-color="rgba(255, 255, 255, 1)" offset="100%" />
    </linearGradient>
    <linearGradient id="sw-gradient-1" x1="0" x2="0" y1="1" y2="0">
      <stop stop-color="rgba(190, 144, 255, 1)" offset="0%" />
      <stop stop-color="rgba(255, 255, 255, 1)" offset="100%" />
    </linearGradient>
    <linearGradient id="sw-gradient-2" x1="0" x2="0" y1="1" y2="0">
      <stop stop-color="rgba(190, 144, 255, 1)" offset="0%" />
      <stop stop-color="rgba(255, 255, 255, 1)" offset="100%" />
    </linearGradient>
  </defs>
  <path style="transform:translate(0, 0px); opacity:1" fill="url(#sw-gradient-0)" d="M0,84L21.8,91C43.6,98,87,112,131,107.3C174.5,103,218,79,262,70C305.5,61,349,65,393,74.7C436.4,84,480,98,524,100.3C567.3,103,611,93,655,88.7C698.2,84,742,84,785,81.7C829.1,79,873,75,916,70C960,65,1004,61,1047,51.3C1090.9,42,1135,28,1178,23.3C1221.8,19,1265,23,1309,32.7C1352.7,42,1396,56,1440,53.7C1483.6,51,1527,33,1571,35C1614.5,37,1658,61,1702,67.7C1745.5,75,1789,65,1833,60.7C1876.4,56,1920,56,1964,58.3C2007.3,61,2051,65,2095,72.3C2138.2,79,2182,89,2225,81.7C2269.1,75,2313,51,2356,51.3C2400,51,2444,75,2487,77C2530.9,79,2575,61,2618,44.3C2661.8,28,2705,14,2749,18.7C2792.7,23,2836,47,2880,63C2923.6,79,2967,89,3011,77C3054.5,65,3098,33,3120,16.3L3141.8,0L3141.8,140L3120,140C3098.2,140,3055,140,3011,140C2967.3,140,2924,140,2880,140C2836.4,140,2793,140,2749,140C2705.5,140,2662,140,2618,140C2574.5,140,2531,140,2487,140C2443.6,140,2400,140,2356,140C2312.7,140,2269,140,2225,140C2181.8,140,2138,140,2095,140C2050.9,140,2007,140,1964,140C1920,140,1876,140,1833,140C1789.1,140,1745,140,1702,140C1658.2,140,1615,140,1571,140C1527.3,140,1484,140,1440,140C1396.4,140,1353,140,1309,140C1265.5,140,1222,140,1178,140C1134.5,140,1091,140,1047,140C1003.6,140,960,140,916,140C872.7,140,829,140,785,140C741.8,140,698,140,655,140C610.9,140,567,140,524,140C480,140,436,140,393,140C349.1,140,305,140,262,140C218.2,140,175,140,131,140C87.3,140,44,140,22,140L0,140Z"/>
  <path style="transform:translate(0, 50px); opacity:0.9" fill="url(#sw-gradient-1)" d="M0,84L21.8,74.7C43.6,65,87,47,131,35C174.5,23,218,19,262,30.3C305.5,42,349,70,393,81.7C436.4,93,480,89,524,84C567.3,79,611,75,655,70C698.2,65,742,61,785,49C829.1,37,873,19,916,9.3C960,0,1004,0,1047,4.7C1090.9,9,1135,19,1178,35C1221.8,51,1265,75,1309,88.7C1352.7,103,1396,107,1440,91C1483.6,75,1527,37,1571,30.3C1614.5,23,1658,47,1702,56C1745.5,65,1789,61,1833,70C1876.4,79,1920,103,1964,102.7C2007.3,103,2051,79,2095,58.3C2138.2,37,2182,19,2225,16.3C2269.1,14,2313,28,2356,28C2400,28,2444,14,2487,18.7C2530.9,23,2575,47,2618,46.7C2661.8,47,2705,23,2749,16.3C2792.7,9,2836,19,2880,39.7C2923.6,61,2967,93,3011,100.3C3054.5,107,3098,89,3120,79.3L3141.8,70L3141.8,140L3120,140C3098.2,140,3055,140,3011,140C2967.3,140,2924,140,2880,140C2836.4,140,2793,140,2749,140C2705.5,140,2662,140,2618,140C2574.5,140,2531,140,2487,140C2443.6,140,2400,140,2356,140C2312.7,140,2269,140,2225,140C2181.8,140,2138,140,2095,140C2050.9,140,2007,140,1964,140C1920,140,1876,140,1833,140C1789.1,140,1745,140,1702,140C1658.2,140,1615,140,1571,140C1527.3,140,1484,140,1440,140C1396.4,140,1353,140,1309,140C1265.5,140,1222,140,1178,140C1134.5,140,1091,140,1047,140C1003.6,140,960,140,916,140C872.7,140,829,140,785,140C741.8,140,698,140,655,140C610.9,140,567,140,524,140C480,140,436,140,393,140C349.1,140,305,140,262,140C218.2,140,175,140,131,140C87.3,140,44,140,22,140L0,140Z"/>
</svg>
